:SAMPLES-PER-SECOND 30
:FULLY-SPECIFIED
:DEGREES
67
root  -35.4897 38.1149 -24.4602 -168.865 -82.5321 -176.791
RightUpLeg  -46.2737 -10.2217 -4.80788
RightLeg  25.44 -0.869549 -0.624687
RightFoot  1.22163 -0.990399 9.08953
RightToes  0.00048216 0.542163 -0.142577
Spine  56.1089 -4.40495 7.11611
Spine1  12.1612 0.935876 -3.46492
HEad  -28.9141 -6.47043 -8.12491
LeftShoulder1  7.67769 -21.3091 -24.6498
LeftArm  -24.3302 -50.1513 -26.936
LeftForeArm  12.9188 1.92974 -2.97764
LeftHand  -0.25398 0.0180481 5.50724
RightShoulder  3.8274 14.1997 14.7872
RightArm  -31.4858 51.2605 13.4388
RightForeArm  5.08491 0.538338 4.34198
RightHand  -0.674048 1.98146 -10.8136
LeftUpLeg  -48.8808 25.1724 -21.6346
LeftLeg  24.3664 -2.1954 -0.74655
LeftFoot  4.52918 -2.34126 16.4748
LeftToes  1.06243e-005 4.65856e-005 -8.18503e-006
68
root  -36.0792 37.9259 -25.1881 -157.76 -85.0657 174.219
RightUpLeg  -48.2176 -10.8604 -4.99818
RightLeg  21.7025 -0.353715 -0.363109
RightFoot  5.44318 -0.989801 7.02759
RightToes  0.00048216 0.542163 -0.142577
Spine  58.1885 -4.91761 8.11067
Spine1  12.191 1.09328 -3.18003
HEad  -31.2043 -8.87186 -6.31694
LeftShoulder1  8.09241 -23.7591 -23.2692
LeftArm  -28.8051 -55.4975 -22.7212
LeftForeArm  12.8983 2.64139 -2.31069
LeftHand  -0.25398 0.0180481 5.50724
RightShoulder  3.87337 14.6487 14.4741
RightArm  -36.7832 52.2202 5.26935
RightForeArm  3.0139 -0.349202 4.148
RightHand  -0.670215 2.3457 -10.2792
LeftUpLeg  -51.1024 22.4518 -21.3264
LeftLeg  27.3174 -2.12504 -0.845639
LeftFoot  3.32524 -2.06056 15.7454
LeftToes  1.06243e-005 4.65856e-005 -8.18503e-006
69
root  -36.6175 37.6843 -25.955 -137.177 -87.1631 155.795
RightUpLeg  -51.3252 -11.7047 -4.13744
RightLeg  23.5143 -0.943737 -0.673355
RightFoot  9.01016 -0.572593 3.50511
RightToes  0.00048216 0.542163 -0.142577
Spine  61.4643 -5.78355 9.04074
Spine1  10.0129 0.98643 -3.59392
HEad  -32.9568 -10.1606 -4.26525
LeftShoulder1  8.00614 -24.7261 -21.8543
LeftArm  -33.732 -59.8873 -18.0967
LeftForeArm  13.5426 2.07455 -1.79624
LeftHand  -0.25398 0.0180481 5.50724
RightShoulder  4.08914 15.6 14.5419
RightArm  -41.2953 52.0767 -1.56223
RightForeArm  0.241069 -0.65875 3.99343
RightHand  -0.687035 2.67292 -10.135
LeftUpLeg  -53.6283 19.9285 -20.5742
LeftLeg  30.3672 -1.89415 -0.846548
LeftFoot  2.04478 -1.75176 14.7279
LeftToes  1.06243e-005 4.65856e-005 -8.18503e-006
70
root  -37.1489 37.3872 -26.7095 -100.579 -88.2885 121.994
RightUpLeg  -55.977 -12.7046 -2.45719
RightLeg  28.2134 -0.889655 -0.745667
RightFoot  9.4328 -0.1078 0.916152
RightToes  0.00048216 0.542163 -0.142577
Spine  64.1765 -6.37497 9.74066
Spine1  7.82315 1.17282 -4.23929
HEad  -35.2754 -11.004 -2.53837
LeftShoulder1  7.77961 -25.0504 -20.6653
LeftArm  -40.1866 -63.9776 -12.0233
LeftForeArm  13.7888 0.568364 -1.35698
LeftHand  -0.25398 0.0180481 5.50724
RightShoulder  4.16815 16.4876 13.9278
RightArm  -46.05 51.4195 -7.74237
RightForeArm  -2.05012 -0.927835 3.52931
RightHand  -0.641386 2.80785 -9.33055
LeftUpLeg  -57.3624 18.0976 -20.0809
LeftLeg  33.7762 -1.71697 -0.876722
LeftFoot  0.67433 -1.44041 13.5789
LeftToes  1.06243e-005 4.65856e-005 -8.18503e-006
71
root  -37.6867 37.0991 -27.4302 -63.2783 -88.4678 88.1084
RightUpLeg  -61.3574 -13.6601 0.034015
RightLeg  32.7489 -0.363595 -0.502044
RightFoot  7.24725 0.155663 -0.649097
RightToes  0.00048216 0.542163 -0.142577
Spine  66.3498 -6.42361 9.99988
Spine1  5.76361 1.57881 -4.77271
HEad  -37.7641 -11.3826 -1.41914
LeftShoulder1  7.74463 -25.3088 -20.2706
LeftArm  -49.038 -67.2048 -2.35877
LeftForeArm  12.7246 -1.15232 -1.23158
LeftHand  -0.25398 0.0180481 5.50724
RightShoulder  4.08226 17.4124 12.4499
RightArm  -50.8643 50.5239 -13.3698
RightForeArm  -3.10706 -1.89311 2.69451
RightHand  -0.536948 3.11049 -7.62103
LeftUpLeg  -62.3555 17.3925 -20.2157
LeftLeg  37.3799 -1.94813 -1.22786
LeftFoot  0.149079 -1.24582 12.3313
LeftToes  1.06243e-005 4.65856e-005 -8.18503e-006
72
root  -38.231 36.8598 -28.1111 -39.9684 -88.4858 68.0008
RightUpLeg  -66.0643 -14.5753 3.27305
RightLeg  35.9771 0.185028 -0.120178
RightFoot  4.81305 0.300142 -1.87627
RightToes  0.00048216 0.542163 -0.142577
Spine  68.5108 -6.19229 9.9945
Spine1  3.75372 2.00515 -5.3665
HEad  -39.6329 -11.6329 -0.463636
LeftShoulder1  7.87899 -26.0868 -19.9863
LeftArm  -60.0582 -68.8728 10.2179
LeftForeArm  10.819 -2.39463 -1.11687
LeftHand  -0.25398 0.0180481 5.50724
RightShoulder  4.02284 18.3451 11.2128
RightArm  -55.4301 49.4966 -18.6459
RightForeArm  -4.97834 -3.37877 1.7739
RightHand  -0.483593 4.0484 -6.28185
LeftUpLeg  -67.445 17.5757 -20.6229
LeftLeg  40.8869 -2.42927 -1.86412
LeftFoot  0.613295 -1.1597 11.0089
LeftToes  1.06243e-005 4.65856e-005 -8.18503e-006
73
root  -38.7749 36.6592 -28.7313 -21.1598 -88.3102 51.9685
RightUpLeg  -69.9496 -15.5202 6.6909
RightLeg  38.4226 0.872216 0.46678
RightFoot  3.30643 0.440396 -3.24505
RightToes  0.00048216 0.542163 -0.142577
Spine  70.6483 -6.06724 9.81709
Spine1  1.75426 2.19479 -6.22084
HEad  -40.4992 -11.8401 0.593126
LeftShoulder1  7.87662 -27.08 -19.0296
LeftArm  -70.6517 -69.016 21.5812
LeftForeArm  8.79004 -3.37504 -0.620639
LeftHand  -0.25398 0.0180481 5.50724
RightShoulder  4.11196 19.1327 10.9325
RightArm  -59.3808 48.4844 -23.0631
RightForeArm  -9.52597 -4.30905 1.11288
RightHand  -0.574278 5.62079 -6.42497
LeftUpLeg  -71.6956 17.8396 -21.1345
LeftLeg  43.6778 -2.6589 -2.31093
LeftFoot  1.07159 -1.07851 9.82656
LeftToes  1.06243e-005 4.65856e-005 -8.18503e-006
74
root  -39.2959 36.4792 -29.2591 -7.24944 -87.9696 40.6897
RightUpLeg  -73.5672 -16.2396 9.85207
RightLeg  40.6993 1.6226 1.20473
RightFoot  2.09393 0.595127 -4.93012
RightToes  0.00048216 0.542163 -0.142577
Spine  72.4097 -5.98863 9.51343
Spine1  0.0583667 2.18367 -6.82685
HEad  -40.7156 -11.7929 1.20698
LeftShoulder1  7.69783 -27.5937 -17.9421
LeftArm  -79.1905 -68.4701 29.9
LeftForeArm  6.28875 -4.53896 0.0695976
LeftHand  -0.25398 0.0180481 5.50724
RightShoulder  4.08444 19.5176 10.461
RightArm  -62.1801 47.7165 -25.7255
RightForeArm  -15.3135 -3.96705 0.858884
RightHand  -0.790472 7.6505 -7.47524
LeftUpLeg  -75.094 17.8438 -21.7391
LeftLeg  45.4797 -2.49679 -2.30229
LeftFoot  0.71387 -0.959756 9.02578
LeftToes  1.06243e-005 4.65856e-005 -8.18503e-006
75
root  -39.7657 36.325 -29.6865 7.69246 -87.7625 28.136
RightUpLeg  -76.6747 -16.4961 12.7942
RightLeg  42.553 2.13099 1.79071
RightFoot  0.638418 0.694093 -6.55988
RightToes  0.00048216 0.542163 -0.142577
Spine  73.6526 -5.67831 9.18198
Spine1  -1.04161 2.21173 -6.67937
HEad  -40.8515 -11.2656 1.06984
LeftShoulder1  7.51763 -27.4483 -17.4468
LeftArm  -85.6228 -67.8528 36.456
LeftForeArm  2.57335 -5.41045 0.410395
LeftHand  -0.25398 0.0180481 5.50724
RightShoulder  3.65395 19.3932 8.47147
RightArm  -63.7099 47.389 -26.2601
RightForeArm  -19.5375 -2.73976 0.852959
RightHand  -0.927338 9.58391 -7.68624
LeftUpLeg  -77.9098 17.9527 -22.239
LeftLeg  46.6281 -2.28252 -2.1652
LeftFoot  -0.200235 -0.834171 8.54817
LeftToes  1.06243e-005 4.65856e-005 -8.18503e-006
76
root  -40.1761 36.2044 -30.036 25.118 -87.5777 12.5319
RightUpLeg  -78.7647 -16.494 15.4641
RightLeg  43.7239 2.40545 2.15161
RightFoot  -0.659671 0.713821 -7.65746
RightToes  0.00048216 0.542163 -0.142577
Spine  74.4606 -5.24581 8.86141
Spine1  -1.27087 2.31439 -6.19394
HEad  -41.1636 -10.248 0.886053
LeftShoulder1  7.26575 -26.9879 -16.9614
LeftArm  -90.1172 -67.3728 41.6607
LeftForeArm  -1.91195 -5.43392 0.418457
LeftHand  -0.25398 0.0180481 5.50724
RightShoulder  3.02112 18.8513 5.74386
RightArm  -65.4299 47.6411 -25.2553
RightForeArm  -21.4193 -1.06721 0.634505
RightHand  -0.717271 10.551 -5.71791
LeftUpLeg  -80.1308 18.428 -22.5438
LeftLeg  47.5184 -2.37259 -2.34684
LeftFoot  -1.14886 -0.723118 8.17137
LeftToes  1.06243e-005 4.65856e-005 -8.18503e-006
77
root  -40.5286 36.1317 -30.3216 37.1615 -87.2548 1.75168
RightUpLeg  -80.0366 -16.5106 17.5809
RightLeg  44.4801 2.64082 2.45929
RightFoot  -1.40431 0.713638 -8.29322
RightToes  0.00048216 0.542163 -0.142577
Spine  74.7805 -5.04406 8.52487
Spine1  -0.61447 2.25973 -6.14663
HEad  -41.6259 -8.9031 1.32094
LeftShoulder1  6.81324 -26.3633 -15.8751
LeftArm  -93.5624 -67.0987 44.5813
LeftForeArm  -5.41505 -5.69113 0.706251
LeftHand  -0.25398 0.0180481 5.50724
RightShoulder  2.66248 18.1126 4.41097
RightArm  -69.0441 48.3937 -23.9093
RightForeArm  -21.9311 1.6082 0.0565484
RightHand  -0.174756 10.2468 -1.78322
LeftUpLeg  -81.6338 19.0936 -22.9124
LeftLeg  48.0917 -2.77691 -2.88011
LeftFoot  -2.00579 -0.632077 7.87775
LeftToes  1.06243e-005 4.65856e-005 -8.18503e-006
78
root  -40.8244 36.1175 -30.5399 41.3766 -86.9485 -1.47276
RightUpLeg  -81.052 -16.5798 19.1078
RightLeg  45.1041 2.80047 2.68606
RightFoot  -1.80869 0.725274 -8.81873
RightToes  0.00048216 0.542163 -0.142577
Spine  74.6577 -5.09759 8.16573
Spine1  0.523897 1.96577 -6.47317
HEad  -42.0968 -7.57134 1.8946
LeftShoulder1  6.43134 -25.4646 -15.2373
LeftArm  -97.1875 -66.964 45.378
LeftForeArm  -6.2822 -7.92979 1.42359
LeftHand  -0.25398 0.0180481 5.50724
RightShoulder  2.74156 17.4153 5.30281
RightArm  -73.7099 49.2213 -23.3587
RightForeArm  -21.9485 5.83019 -0.184644
RightHand  0.352493 9.2298 2.27121
LeftUpLeg  -82.5934 19.6954 -23.6013
LeftLeg  48.1962 -3.27834 -3.49062
LeftFoot  -2.66844 -0.572033 7.74438
LeftToes  1.06243e-005 4.65856e-005 -8.18503e-006
79
root  -41.059 36.1608 -30.6926 42.6217 -86.7253 -1.90465
RightUpLeg  -81.8537 -16.7195 20.3514
RightLeg  45.3788 2.81452 2.72824
RightFoot  -2.05543 0.735058 -9.19198
RightToes  0.00048216 0.542163 -0.142577
Spine  74.4105 -5.11871 7.83792
Spine1  1.50399 1.66224 -6.50941
HEad  -42.3399 -6.7217 1.81676
LeftShoulder1  6.42264 -24.4722 -16.0771
LeftArm  -101.156 -66.8058 45.3891
LeftForeArm  -4.22612 -11.8317 1.62899
LeftHand  -0.25398 0.0180481 5.50724
RightShoulder  3.02055 16.8617 7.24089
RightArm  -76.9326 49.722 -24.0767
RightForeArm  -21.2829 10.2805 0.478087
RightHand  0.637465 8.67089 4.7277
LeftUpLeg  -83.27 20.1665 -24.4434
LeftLeg  47.9559 -3.70544 -3.96514
LeftFoot  -2.83742 -0.551843 7.64183
LeftToes  1.06243e-005 4.65856e-005 -8.18503e-006
